<?xml version="1.0" encoding="UTF-8" standalone="no"?>
<!DOCTYPE svg PUBLIC "-//W3C//DTD SVG 1.1//EN"
 "http://www.w3.org/Graphics/SVG/1.1/DTD/svg11.dtd">
<!-- Generated by graphviz version 15.0.0 (20260523.1842)
 -->
<!-- Title: indovinaparola.common.RisultatoSfida Pages: 1 -->
<svg width="161pt" height="256pt"
 viewBox="0.00 0.00 161.00 256.00" xmlns="http://www.w3.org/2000/svg" xmlns:xlink="http://www.w3.org/1999/xlink">
<g id="graph0" class="graph" transform="scale(1 1) rotate(0) translate(4 252)">
<title>indovinaparola.common.RisultatoSfida</title>
<!-- Node1 -->
<g id="Node000001" class="node">
<title>Node1</title>
<g id="a_Node000001"><a xlink:title=" ">
<polygon fill="#999999" stroke="none" points="152.75,-160 0,-160 0,0 152.75,0 152.75,-160"/>
<text xml:space="preserve" text-anchor="start" x="4" y="-146.25" font-family="Helvetica,sans-Serif" font-size="10.00">indovinaparola.common.Risultato</text>
<text xml:space="preserve" text-anchor="start" x="65.12" y="-134.25" font-family="Helvetica,sans-Serif" font-size="10.00">Sfida</text>
<text xml:space="preserve" text-anchor="start" x="10.88" y="-118.25" font-family="Helvetica,sans-Serif" font-size="10.00">&#45;</text>
<text xml:space="preserve" text-anchor="start" x="24.75" y="-118.25" font-family="Helvetica,sans-Serif" font-size="10.00">esito</text>
<text xml:space="preserve" text-anchor="start" x="10.88" y="-102.25" font-family="Helvetica,sans-Serif" font-size="10.00">&#45;</text>
<text xml:space="preserve" text-anchor="start" x="24.75" y="-102.25" font-family="Helvetica,sans-Serif" font-size="10.00">nomeUtenteVincitore</text>
<text xml:space="preserve" text-anchor="start" x="10.88" y="-86.25" font-family="Helvetica,sans-Serif" font-size="10.00">&#45;</text>
<text xml:space="preserve" text-anchor="start" x="24.75" y="-86.25" font-family="Helvetica,sans-Serif" font-size="10.00">parolaCorretta</text>
<text xml:space="preserve" text-anchor="start" x="10.88" y="-70.25" font-family="Helvetica,sans-Serif" font-size="10.00">&#45;</text>
<text xml:space="preserve" text-anchor="start" x="24.75" y="-70.25" font-family="Helvetica,sans-Serif" font-size="10.00">serialVersionUID</text>
<text xml:space="preserve" text-anchor="start" x="9.38" y="-54.25" font-family="Helvetica,sans-Serif" font-size="10.00">+</text>
<text xml:space="preserve" text-anchor="start" x="24.75" y="-54.25" font-family="Helvetica,sans-Serif" font-size="10.00">getEsito()</text>
<text xml:space="preserve" text-anchor="start" x="9.38" y="-38.25" font-family="Helvetica,sans-Serif" font-size="10.00">+</text>
<text xml:space="preserve" text-anchor="start" x="24.75" y="-38.25" font-family="Helvetica,sans-Serif" font-size="10.00">getNomeUtenteVincitore()</text>
<text xml:space="preserve" text-anchor="start" x="9.38" y="-22.25" font-family="Helvetica,sans-Serif" font-size="10.00">+</text>
<text xml:space="preserve" text-anchor="start" x="24.75" y="-22.25" font-family="Helvetica,sans-Serif" font-size="10.00">getParolaCorretta()</text>
<text xml:space="preserve" text-anchor="start" x="9.38" y="-6.25" font-family="Helvetica,sans-Serif" font-size="10.00">+</text>
<text xml:space="preserve" text-anchor="start" x="24.75" y="-6.25" font-family="Helvetica,sans-Serif" font-size="10.00">RisultatoSfida()</text>
<polygon fill="#666666" stroke="#666666" points="0,-130 0,-130 152.75,-130 152.75,-130 0,-130"/>
<polygon fill="#666666" stroke="#666666" points="0,-66 0,-66 22.75,-66 22.75,-66 0,-66"/>
<polygon fill="#666666" stroke="#666666" points="22.75,-66 22.75,-66 152.75,-66 152.75,-66 22.75,-66"/>
<polygon fill="none" stroke="#666666" points="0,0 0,-160 152.75,-160 152.75,0 0,0"/>
</a>
</g>
</g>
<!-- Node2 -->
<g id="Node000002" class="node">
<title>Node2</title>
<g id="a_Node000002"><a xlink:title=" ">
<polygon fill="white" stroke="none" points="105.5,-248 47.25,-248 47.25,-196 105.5,-196 105.5,-248"/>
<text xml:space="preserve" text-anchor="start" x="51.25" y="-234.25" font-family="Helvetica,sans-Serif" font-size="10.00">Serializable</text>
<text xml:space="preserve" text-anchor="start" x="74.88" y="-218.25" font-family="Helvetica,sans-Serif" font-size="10.00"> </text>
<text xml:space="preserve" text-anchor="start" x="74.88" y="-202.25" font-family="Helvetica,sans-Serif" font-size="10.00"> </text>
<polygon fill="#666666" stroke="#666666" points="47.25,-230 47.25,-230 105.5,-230 105.5,-230 47.25,-230"/>
<polygon fill="#666666" stroke="#666666" points="47.25,-214 47.25,-214 105.5,-214 105.5,-214 47.25,-214"/>
<polygon fill="none" stroke="#666666" points="47.25,-196 47.25,-248 105.5,-248 105.5,-196 47.25,-196"/>
</a>
</g>
</g>
<!-- Node2&#45;&gt;Node1 -->
<g id="edge1_Node000001_Node000002" class="edge">
<title>Node2&#45;&gt;Node1</title>
<g id="a_edge1_Node000001_Node000002"><a xlink:title=" ">
<path fill="none" stroke="#63b8ff" d="M76.38,-185.05C76.38,-177.21 76.38,-168.61 76.38,-159.83"/>
<polygon fill="none" stroke="#63b8ff" points="72.88,-184.78 76.38,-194.78 79.88,-184.78 72.88,-184.78"/>
</a>
</g>
</g>
</g>
</svg>
