<?xml version="1.0" encoding="UTF-8" standalone="no"?>
<!DOCTYPE svg PUBLIC "-//W3C//DTD SVG 1.1//EN"
 "http://www.w3.org/Graphics/SVG/1.1/DTD/svg11.dtd">
<!-- Generated by graphviz version 15.0.0 (20260523.1842)
 -->
<!-- Title: indovinaparola.server.model.GestoreClient.cicloAscolto Pages: 1 -->
<svg width="580pt" height="106pt"
 viewBox="0.00 0.00 580.00 106.00" xmlns="http://www.w3.org/2000/svg" xmlns:xlink="http://www.w3.org/1999/xlink">
<g id="graph0" class="graph" transform="scale(1 1) rotate(0) translate(4 102)">
<title>indovinaparola.server.model.GestoreClient.cicloAscolto</title>
<!-- Node1 -->
<g id="Node000001" class="node">
<title>Node1</title>
<g id="a_Node000001"><a xlink:title="Loop di lettura messaggi dal client.">
<polygon fill="#999999" stroke="#666666" points="140.5,-73 0,-73 0,-41 140.5,-41 140.5,-73"/>
<text xml:space="preserve" text-anchor="start" x="8" y="-59.5" font-family="Helvetica,sans-Serif" font-size="10.00">indovinaparola.server.model.</text>
<text xml:space="preserve" text-anchor="middle" x="70.25" y="-47.5" font-family="Helvetica,sans-Serif" font-size="10.00">GestoreClient.cicloAscolto</text>
</a>
</g>
</g>
<!-- Node2 -->
<g id="Node000002" class="node">
<title>Node2</title>
<g id="a_Node000002"><a xlink:href="classindovinaparola_1_1server_1_1model_1_1_gestore_client.html#ad632e5329fc3af0ede5a3a2a2ee10380" target="_top" xlink:title="Chiude la connessione socket con il client.">
<polygon fill="white" stroke="#666666" points="324.5,-98 184,-98 184,-66 324.5,-66 324.5,-98"/>
<text xml:space="preserve" text-anchor="start" x="192" y="-84.5" font-family="Helvetica,sans-Serif" font-size="10.00">indovinaparola.server.model.</text>
<text xml:space="preserve" text-anchor="middle" x="254.25" y="-72.5" font-family="Helvetica,sans-Serif" font-size="10.00">GestoreClient.close</text>
</a>
</g>
</g>
<!-- Node1&#45;&gt;Node2 -->
<g id="edge1_Node000001_Node000002" class="edge">
<title>Node1&#45;&gt;Node2</title>
<g id="a_edge1_Node000001_Node000002"><a xlink:title=" ">
<path fill="none" stroke="#63b8ff" d="M140.84,-66.56C151.15,-67.98 161.86,-69.45 172.38,-70.89"/>
<polygon fill="#63b8ff" stroke="#63b8ff" points="171.82,-74.35 182.2,-72.24 172.77,-67.41 171.82,-74.35"/>
</a>
</g>
</g>
<!-- Node3 -->
<g id="Node000003" class="node">
<title>Node3</title>
<g id="a_Node000003"><a xlink:href="classindovinaparola_1_1server_1_1model_1_1_gestore_client.html#a851c4a5d10d767c9a64d90c3de477b9e" target="_top" xlink:title="Smista il messaggio ricevuto al metodo appropriato del coordinatore,.">
<polygon fill="white" stroke="#666666" points="332,-48 176.5,-48 176.5,-16 332,-16 332,-48"/>
<text xml:space="preserve" text-anchor="start" x="184.5" y="-34.5" font-family="Helvetica,sans-Serif" font-size="10.00">indovinaparola.server.model.</text>
<text xml:space="preserve" text-anchor="middle" x="254.25" y="-22.5" font-family="Helvetica,sans-Serif" font-size="10.00">GestoreClient.smistaMessaggio</text>
</a>
</g>
</g>
<!-- Node1&#45;&gt;Node3 -->
<g id="edge2_Node000001_Node000003" class="edge">
<title>Node1&#45;&gt;Node3</title>
<g id="a_edge2_Node000001_Node000003"><a xlink:title=" ">
<path fill="none" stroke="#63b8ff" d="M140.84,-47.44C148.68,-46.36 156.75,-45.26 164.79,-44.15"/>
<polygon fill="#63b8ff" stroke="#63b8ff" points="165.19,-47.63 174.62,-42.8 164.23,-40.69 165.19,-47.63"/>
</a>
</g>
</g>
<!-- Node4 -->
<g id="Node000004" class="node">
<title>Node4</title>
<g id="a_Node000004"><a xlink:href="classindovinaparola_1_1common_1_1_messaggio.html#a42d1e549994b4e59cf42f7707298f818" target="_top" xlink:title="Restituisce il carico del messaggio.">
<polygon fill="white" stroke="#666666" points="562.88,-70 377.38,-70 377.38,-38 562.88,-38 562.88,-70"/>
<text xml:space="preserve" text-anchor="start" x="385.38" y="-56.5" font-family="Helvetica,sans-Serif" font-size="10.00">indovinaparola.common.Messaggio.get</text>
<text xml:space="preserve" text-anchor="middle" x="470.12" y="-44.5" font-family="Helvetica,sans-Serif" font-size="10.00">Carico</text>
</a>
</g>
</g>
<!-- Node3&#45;&gt;Node4 -->
<g id="edge3_Node000003_Node000004" class="edge">
<title>Node3&#45;&gt;Node4</title>
<g id="a_edge3_Node000003_Node000004"><a xlink:title=" ">
<path fill="none" stroke="#63b8ff" d="M332.46,-39.94C343.32,-41.06 354.62,-42.22 365.87,-43.38"/>
<polygon fill="#63b8ff" stroke="#63b8ff" points="365.27,-46.84 375.58,-44.38 365.99,-39.87 365.27,-46.84"/>
</a>
</g>
</g>
<!-- Node5 -->
<g id="Node000005" class="node">
<title>Node5</title>
<g id="a_Node000005"><a xlink:href="classindovinaparola_1_1common_1_1_messaggio.html#a5dab2d30f1c776e7822004c01ef271c2" target="_top" xlink:title="Restituisce il tipo del messaggio.">
<polygon fill="white" stroke="#666666" points="572.25,-20 368,-20 368,0 572.25,0 572.25,-20"/>
<text xml:space="preserve" text-anchor="middle" x="470.12" y="-6.5" font-family="Helvetica,sans-Serif" font-size="10.00">indovinaparola.common.Messaggio.getTipo</text>
</a>
</g>
</g>
<!-- Node3&#45;&gt;Node5 -->
<g id="edge4_Node000003_Node000005" class="edge">
<title>Node3&#45;&gt;Node5</title>
<g id="a_edge4_Node000003_Node000005"><a xlink:title=" ">
<path fill="none" stroke="#63b8ff" d="M332.46,-24.06C340.27,-23.25 348.31,-22.43 356.39,-21.6"/>
<polygon fill="#63b8ff" stroke="#63b8ff" points="356.73,-25.08 366.32,-20.58 356.01,-18.12 356.73,-25.08"/>
</a>
</g>
</g>
</g>
</svg>
