<?xml version="1.0" encoding="UTF-8" standalone="no"?>
<!DOCTYPE svg PUBLIC "-//W3C//DTD SVG 1.1//EN"
 "http://www.w3.org/Graphics/SVG/1.1/DTD/svg11.dtd">
<!-- Generated by graphviz version 15.0.0 (20260523.1842)
 -->
<!-- Title: indovinaparola.server.model.CoordinatoreGioco.gestisciRisposta Pages: 1 -->
<svg width="556pt" height="140pt"
 viewBox="0.00 0.00 556.00 140.00" xmlns="http://www.w3.org/2000/svg" xmlns:xlink="http://www.w3.org/1999/xlink">
<g id="graph0" class="graph" transform="scale(1 1) rotate(0) translate(4 136)">
<title>indovinaparola.server.model.CoordinatoreGioco.gestisciRisposta</title>
<!-- Node1 -->
<g id="Node000001" class="node">
<title>Node1</title>
<g id="a_Node000001"><a xlink:title="Gestisce la risposta di un giocatore alla sfida in corso.">
<polygon fill="#999999" stroke="#666666" points="172.75,-107 0,-107 0,-75 172.75,-75 172.75,-107"/>
<text xml:space="preserve" text-anchor="start" x="8" y="-93.5" font-family="Helvetica,sans-Serif" font-size="10.00">indovinaparola.server.model.</text>
<text xml:space="preserve" text-anchor="middle" x="86.38" y="-81.5" font-family="Helvetica,sans-Serif" font-size="10.00">CoordinatoreGioco.gestisciRisposta</text>
</a>
</g>
</g>
<!-- Node2 -->
<g id="Node000002" class="node">
<title>Node2</title>
<g id="a_Node000002"><a xlink:href="classindovinaparola_1_1server_1_1model_1_1_coordinatore_gioco.html#a259735d196946931b37383bfd46e7c92" target="_top" xlink:title="Scrive un messaggio nel log del sistema, chiamando anche la callback della GUI se impostata.">
<polygon fill="white" stroke="#666666" points="543.75,-132 403.25,-132 403.25,-100 543.75,-100 543.75,-132"/>
<text xml:space="preserve" text-anchor="start" x="411.25" y="-118.5" font-family="Helvetica,sans-Serif" font-size="10.00">indovinaparola.server.model.</text>
<text xml:space="preserve" text-anchor="middle" x="473.5" y="-106.5" font-family="Helvetica,sans-Serif" font-size="10.00">CoordinatoreGioco.log</text>
</a>
</g>
</g>
<!-- Node1&#45;&gt;Node2 -->
<g id="edge1_Node000001_Node000002" class="edge">
<title>Node1&#45;&gt;Node2</title>
<g id="a_edge1_Node000001_Node000002"><a xlink:title=" ">
<path fill="none" stroke="#63b8ff" d="M172.85,-96.55C238.18,-100.79 327.62,-106.6 391.74,-110.76"/>
<polygon fill="#63b8ff" stroke="#63b8ff" points="391.3,-114.24 401.5,-111.39 391.75,-107.25 391.3,-114.24"/>
</a>
</g>
</g>
<!-- Node3 -->
<g id="Node000003" class="node">
<title>Node3</title>
<g id="a_Node000003"><a xlink:href="classindovinaparola_1_1server_1_1model_1_1_coordinatore_gioco.html#a269d7268fb2c81755f3d076c83a73d0d" target="_top" xlink:title="Termina la sfida in corso, invia i risultati ai client e persiste i dati nel database in una transazi...">
<polygon fill="white" stroke="#666666" points="363.5,-85 208.75,-85 208.75,-53 363.5,-53 363.5,-85"/>
<text xml:space="preserve" text-anchor="start" x="216.75" y="-71.5" font-family="Helvetica,sans-Serif" font-size="10.00">indovinaparola.server.model.</text>
<text xml:space="preserve" text-anchor="middle" x="286.12" y="-59.5" font-family="Helvetica,sans-Serif" font-size="10.00">CoordinatoreGioco.terminaSfida</text>
</a>
</g>
</g>
<!-- Node1&#45;&gt;Node3 -->
<g id="edge2_Node000001_Node000003" class="edge">
<title>Node1&#45;&gt;Node3</title>
<g id="a_edge2_Node000001_Node000003"><a xlink:title=" ">
<path fill="none" stroke="#63b8ff" d="M173.25,-81.45C181.09,-80.57 189.05,-79.69 196.91,-78.81"/>
<polygon fill="#63b8ff" stroke="#63b8ff" points="197.29,-82.29 206.84,-77.71 196.51,-75.34 197.29,-82.29"/>
</a>
</g>
</g>
<!-- Node3&#45;&gt;Node2 -->
<g id="edge5_Node000003_Node000002" class="edge">
<title>Node3&#45;&gt;Node2</title>
<g id="a_edge5_Node000003_Node000002"><a xlink:title=" ">
<path fill="none" stroke="#63b8ff" d="M351.96,-85.44C366.49,-89.12 382.04,-93.06 396.96,-96.85"/>
<polygon fill="#63b8ff" stroke="#63b8ff" points="395.68,-100.13 406.23,-99.2 397.4,-93.35 395.68,-100.13"/>
</a>
</g>
</g>
<!-- Node4 -->
<g id="Node000004" class="node">
<title>Node4</title>
<g id="a_Node000004"><a xlink:href="classindovinaparola_1_1server_1_1model_1_1_gestore_client.html#a0132f0000b2143692d87516abd31e231" target="_top" xlink:title="Restituisce lo nomeUtente del client autenticato.">
<polygon fill="white" stroke="#666666" points="547.5,-82 399.5,-82 399.5,-50 547.5,-50 547.5,-82"/>
<text xml:space="preserve" text-anchor="start" x="407.5" y="-68.5" font-family="Helvetica,sans-Serif" font-size="10.00">indovinaparola.server.model.</text>
<text xml:space="preserve" text-anchor="middle" x="473.5" y="-56.5" font-family="Helvetica,sans-Serif" font-size="10.00">GestoreClient.getNomeUtente</text>
</a>
</g>
</g>
<!-- Node3&#45;&gt;Node4 -->
<g id="edge3_Node000003_Node000004" class="edge">
<title>Node3&#45;&gt;Node4</title>
<g id="a_edge3_Node000003_Node000004"><a xlink:title=" ">
<path fill="none" stroke="#63b8ff" d="M363.86,-67.76C371.69,-67.63 379.68,-67.5 387.59,-67.37"/>
<polygon fill="#63b8ff" stroke="#63b8ff" points="387.64,-70.87 397.58,-67.21 387.53,-63.87 387.64,-70.87"/>
</a>
</g>
</g>
<!-- Node5 -->
<g id="Node000005" class="node">
<title>Node5</title>
<g id="a_Node000005"><a xlink:href="classindovinaparola_1_1server_1_1model_1_1_gestore_client.html#af3f6165ff95ef2006e69eb6fb7adb6bf" target="_top" xlink:title="Invia un messaggio al client in modo thread&#45;safe.">
<polygon fill="white" stroke="#666666" points="543.75,-32 403.25,-32 403.25,0 543.75,0 543.75,-32"/>
<text xml:space="preserve" text-anchor="start" x="411.25" y="-18.5" font-family="Helvetica,sans-Serif" font-size="10.00">indovinaparola.server.model.</text>
<text xml:space="preserve" text-anchor="middle" x="473.5" y="-6.5" font-family="Helvetica,sans-Serif" font-size="10.00">GestoreClient.invia</text>
</a>
</g>
</g>
<!-- Node3&#45;&gt;Node5 -->
<g id="edge4_Node000003_Node000005" class="edge">
<title>Node3&#45;&gt;Node5</title>
<g id="a_edge4_Node000003_Node000005"><a xlink:title=" ">
<path fill="none" stroke="#63b8ff" d="M344.76,-52.52C363.51,-47.16 384.5,-41.16 403.96,-35.6"/>
<polygon fill="#63b8ff" stroke="#63b8ff" points="404.79,-39 413.44,-32.88 402.87,-32.27 404.79,-39"/>
</a>
</g>
</g>
</g>
</svg>
