<?xml version="1.0" encoding="UTF-8" standalone="no"?>
<!DOCTYPE svg PUBLIC "-//W3C//DTD SVG 1.1//EN"
 "http://www.w3.org/Graphics/SVG/1.1/DTD/svg11.dtd">
<!-- Generated by graphviz version 15.0.0 (20260523.1842)
 -->
<!-- Title: indovinaparola.client.controller.ControllerGioco.gestisciMessaggioServer Pages: 1 -->
<!--zoomable 628 -->

<svg id="main" version="1.1" xmlns="http://www.w3.org/2000/svg" xmlns:xlink="http://www.w3.org/1999/xlink" xml:space="preserve" onload="init(evt)">

<style type="text/css"><![CDATA[
.node, .edge {opacity: 0.7;}
.node.selected, .edge.selected {opacity: 1;}
.edge:hover path { stroke: red; }
.edge:hover polygon { stroke: red; fill: red; }
]]></style>

<defs>
  <circle id="rim" cx="0" cy="0" r="7"/>
  <circle id="rim2" cx="0" cy="0" r="3.5"/>
  <g id="zoomPlus">
    <use xlink:href="#rim" fill="#404040"><set attributeName="fill" to="#808080" begin="zoomplus.mouseover" end="zoomplus.mouseout"/></use>
    <path d="M-4,0h8M0,-4v8" fill="none" stroke="white" stroke-width="1.5" pointer-events="none"/>
  </g>
  <g id="zoomMin">
    <use xlink:href="#rim" fill="#404040"><set attributeName="fill" to="#808080" begin="zoomminus.mouseover" end="zoomminus.mouseout"/></use>
    <path d="M-4,0h8" fill="none" stroke="white" stroke-width="1.5" pointer-events="none"/>
  </g>
  <g id="arrowUp" transform="translate(30 24)">
    <use xlink:href="#rim"/>
    <path pointer-events="none" fill="none" stroke="white" stroke-width="1.5" d="M0,-3.0v7 M-2.5,-0.5L0,-3.0L2.5,-0.5"/>
  </g>
  <g id="arrowRight" transform="rotate(90) translate(36 -43)">
    <use xlink:href="#rim"/>
    <path pointer-events="none" fill="none" stroke="white" stroke-width="1.5" d="M0,-3.0v7 M-2.5,-0.5L0,-3.0L2.5,-0.5"/>
  </g>
  <g id="arrowDown" transform="rotate(180) translate(-30 -48)">
    <use xlink:href="#rim"/>
    <path pointer-events="none" fill="none" stroke="white" stroke-width="1.5" d="M0,-3.0v7 M-2.5,-0.5L0,-3.0L2.5,-0.5"/>
  </g>
  <g id="arrowLeft" transform="rotate(270) translate(-36 17)">
    <use xlink:href="#rim"/>
    <path pointer-events="none" fill="none" stroke="white" stroke-width="1.5" d="M0,-3.0v7 M-2.5,-0.5L0,-3.0L2.5,-0.5"/>
  </g>
  <g id="resetDef">
    <use xlink:href="#rim2" fill="#404040"><set attributeName="fill" to="#808080" begin="reset.mouseover" end="reset.mouseout"/></use>
  </g>
</defs>
<script type="application/ecmascript">
var viewWidth = 861;
var viewHeight = 628;
var sectionId = 'dynsection-9';
</script>
<script type="application/ecmascript" xlink:href="svg.min.js"/>
<svg id="graph" class="graph">
<g id="viewport">
<title>indovinaparola.client.controller.ControllerGioco.gestisciMessaggioServer</title>
<!-- Node1 -->
<g id="Node000001" class="node">
<title>Node1</title>
<g id="a_Node000001"><a xlink:title="&lt;&lt;&lt;&lt;&lt;&lt;&lt; Updated upstream Smista i messaggi ricevuti dal server al metodo appropriato.">
<polygon fill="#999999" stroke="#666666" points="196,-323 0,-323 0,-291 196,-291 196,-323"/>
<text xml:space="preserve" text-anchor="start" x="8" y="-309.5" font-family="Helvetica,sans-Serif" font-size="10.00">indovinaparola.client.controller.</text>
<text xml:space="preserve" text-anchor="middle" x="98" y="-297.5" font-family="Helvetica,sans-Serif" font-size="10.00">ControllerGioco.gestisciMessaggioServer</text>
</a>
</g>
</g>
<!-- Node2 -->
<g id="Node000002" class="node">
<title>Node2</title>
<g id="a_Node000002"><a xlink:href="classindovinaparola_1_1client_1_1controller_1_1_controller_gioco.html#a635134554b97141ddf13b4c5cb3dd442" target="_top" xlink:title="Avvia la sfida ricevuta dal server.">
<polygon fill="white" stroke="#666666" points="409.25,-495 259,-495 259,-463 409.25,-463 409.25,-495"/>
<text xml:space="preserve" text-anchor="start" x="267" y="-481.5" font-family="Helvetica,sans-Serif" font-size="10.00">indovinaparola.client.controller.</text>
<text xml:space="preserve" text-anchor="middle" x="334.12" y="-469.5" font-family="Helvetica,sans-Serif" font-size="10.00">ControllerGioco.avviaSfida</text>
</a>
</g>
</g>
<!-- Node1&#45;&gt;Node2 -->
<g id="edge1_Node000001_Node000002" class="edge">
<title>Node1&#45;&gt;Node2</title>
<g id="a_edge1_Node000001_Node000002"><a xlink:title=" ">
<path fill="none" stroke="#63b8ff" d="M121.45,-323.49C163.4,-354.31 253.78,-420.71 301.74,-455.95"/>
<polygon fill="#63b8ff" stroke="#63b8ff" points="299.39,-458.56 309.52,-461.66 303.54,-452.92 299.39,-458.56"/>
</a>
</g>
</g>
<!-- Node9 -->
<g id="Node000009" class="node">
<title>Node9</title>
<g id="a_Node000009"><a xlink:href="classindovinaparola_1_1client_1_1controller_1_1_controller_gioco.html#a6cfd8694cca8570f51d9e1a0bfb1dfbc" target="_top" xlink:title="Gestisce i messaggi di errore ricevuti dal server durante la sfida.">
<polygon fill="white" stroke="#666666" points="421.62,-395 246.62,-395 246.62,-363 421.62,-363 421.62,-395"/>
<text xml:space="preserve" text-anchor="start" x="254.62" y="-381.5" font-family="Helvetica,sans-Serif" font-size="10.00">indovinaparola.client.controller.</text>
<text xml:space="preserve" text-anchor="middle" x="334.12" y="-369.5" font-family="Helvetica,sans-Serif" font-size="10.00">ControllerGioco.gestisciErroreServer</text>
</a>
</g>
</g>
<!-- Node1&#45;&gt;Node9 -->
<g id="edge8_Node000001_Node000009" class="edge">
<title>Node1&#45;&gt;Node9</title>
<g id="a_edge8_Node000001_Node000009"><a xlink:title=" ">
<path fill="none" stroke="#63b8ff" d="M142.08,-323.42C167.94,-332.98 201.62,-344.9 232,-354 238.48,-355.94 245.23,-357.85 252.02,-359.69"/>
<polygon fill="#63b8ff" stroke="#63b8ff" points="250.68,-362.96 261.25,-362.14 252.48,-356.19 250.68,-362.96"/>
</a>
</g>
</g>
<!-- Node11 -->
<g id="Node000011" class="node">
<title>Node11</title>
<g id="a_Node000011"><a xlink:href="classindovinaparola_1_1common_1_1_messaggio.html#a42d1e549994b4e59cf42f7707298f818" target="_top" xlink:title="Restituisce il carico del messaggio.">
<polygon fill="white" stroke="#666666" points="426.88,-345 241.38,-345 241.38,-313 426.88,-313 426.88,-345"/>
<text xml:space="preserve" text-anchor="start" x="249.38" y="-331.5" font-family="Helvetica,sans-Serif" font-size="10.00">indovinaparola.common.Messaggio.get</text>
<text xml:space="preserve" text-anchor="middle" x="334.12" y="-319.5" font-family="Helvetica,sans-Serif" font-size="10.00">Carico</text>
</a>
</g>
</g>
<!-- Node1&#45;&gt;Node11 -->
<g id="edge10_Node000001_Node000011" class="edge">
<title>Node1&#45;&gt;Node11</title>
<g id="a_edge10_Node000001_Node000011"><a xlink:title=" ">
<path fill="none" stroke="#63b8ff" d="M196.26,-316.14C207.37,-317.18 218.74,-318.25 229.93,-319.3"/>
<polygon fill="#63b8ff" stroke="#63b8ff" points="229.26,-322.76 239.55,-320.21 229.92,-315.79 229.26,-322.76"/>
</a>
</g>
</g>
<!-- Node12 -->
<g id="Node000012" class="node">
<title>Node12</title>
<g id="a_Node000012"><a xlink:href="classindovinaparola_1_1common_1_1_messaggio.html#a5dab2d30f1c776e7822004c01ef271c2" target="_top" xlink:title="Restituisce il tipo del messaggio.">
<polygon fill="white" stroke="#666666" points="436.25,-295 232,-295 232,-275 436.25,-275 436.25,-295"/>
<text xml:space="preserve" text-anchor="middle" x="334.12" y="-281.5" font-family="Helvetica,sans-Serif" font-size="10.00">indovinaparola.common.Messaggio.getTipo</text>
</a>
</g>
</g>
<!-- Node1&#45;&gt;Node12 -->
<g id="edge11_Node000001_Node000012" class="edge">
<title>Node1&#45;&gt;Node12</title>
<g id="a_edge11_Node000001_Node000012"><a xlink:title=" ">
<path fill="none" stroke="#63b8ff" d="M196.26,-297.86C204.2,-297.11 212.26,-296.36 220.3,-295.6"/>
<polygon fill="#63b8ff" stroke="#63b8ff" points="220.5,-299.1 230.13,-294.68 219.85,-292.13 220.5,-299.1"/>
</a>
</g>
</g>
<!-- Node13 -->
<g id="Node000013" class="node">
<title>Node13</title>
<g id="a_Node000013"><a xlink:href="classindovinaparola_1_1client_1_1controller_1_1_controller_gioco.html#a643b1e5d31acfce71b9f374d724eae41" target="_top" xlink:title="Mostra il pannello di attesa e nasconde gli altri.">
<polygon fill="white" stroke="#666666" points="409.25,-257 259,-257 259,-225 409.25,-225 409.25,-257"/>
<text xml:space="preserve" text-anchor="start" x="267" y="-243.5" font-family="Helvetica,sans-Serif" font-size="10.00">indovinaparola.client.controller.</text>
<text xml:space="preserve" text-anchor="middle" x="334.12" y="-231.5" font-family="Helvetica,sans-Serif" font-size="10.00">ControllerGioco.mostraAttesa</text>
</a>
</g>
</g>
<!-- Node1&#45;&gt;Node13 -->
<g id="edge12_Node000001_Node000013" class="edge">
<title>Node1&#45;&gt;Node13</title>
<g id="a_edge12_Node000001_Node000013"><a xlink:title=" ">
<path fill="none" stroke="#63b8ff" d="M149.96,-290.55C174.64,-282.77 204.76,-273.56 232,-266 238.89,-264.09 246.05,-262.17 253.26,-260.3"/>
<polygon fill="#63b8ff" stroke="#63b8ff" points="253.9,-263.75 262.71,-257.87 252.15,-256.97 253.9,-263.75"/>
</a>
</g>
</g>
<!-- Node14 -->
<g id="Node000014" class="node">
<title>Node14</title>
<g id="a_Node000014"><a xlink:href="classindovinaparola_1_1client_1_1controller_1_1_controller_gioco.html#a0b5fc593bd2fcf30df0807c3119195b7" target="_top" xlink:title="Mostra il pannello con il risultato finale della sfida.">
<polygon fill="white" stroke="#666666" points="411.88,-182 256.38,-182 256.38,-150 411.88,-150 411.88,-182"/>
<text xml:space="preserve" text-anchor="start" x="264.38" y="-168.5" font-family="Helvetica,sans-Serif" font-size="10.00">indovinaparola.client.controller.</text>
<text xml:space="preserve" text-anchor="middle" x="334.12" y="-156.5" font-family="Helvetica,sans-Serif" font-size="10.00">ControllerGioco.mostraRisultato</text>
</a>
</g>
</g>
<!-- Node1&#45;&gt;Node14 -->
<g id="edge14_Node000001_Node000014" class="edge">
<title>Node1&#45;&gt;Node14</title>
<g id="a_edge14_Node000001_Node000014"><a xlink:title=" ">
<path fill="none" stroke="#63b8ff" d="M120.96,-290.55C146.83,-271.52 191.44,-239.75 232,-216 249.52,-205.74 269.43,-195.6 286.93,-187.15"/>
<polygon fill="#63b8ff" stroke="#63b8ff" points="288.03,-190.5 295.54,-183.04 285.01,-184.18 288.03,-190.5"/>
</a>
</g>
</g>
<!-- Node3 -->
<g id="Node000003" class="node">
<title>Node3</title>
<g id="a_Node000003"><a xlink:href="classindovinaparola_1_1client_1_1controller_1_1_controller_gioco.html#a98d4852e0f811db7596d7793ddee21b1" target="_top" xlink:title="Avvia il timer countdown con Timeline di JavaFX.">
<polygon fill="white" stroke="#666666" points="648.38,-620 489.12,-620 489.12,-588 648.38,-588 648.38,-620"/>
<text xml:space="preserve" text-anchor="start" x="497.12" y="-606.5" font-family="Helvetica,sans-Serif" font-size="10.00">indovinaparola.client.controller.</text>
<text xml:space="preserve" text-anchor="middle" x="568.75" y="-594.5" font-family="Helvetica,sans-Serif" font-size="10.00">ControllerGioco.avviaCountdown</text>
</a>
</g>
</g>
<!-- Node2&#45;&gt;Node3 -->
<g id="edge2_Node000002_Node000003" class="edge">
<title>Node2&#45;&gt;Node3</title>
<g id="a_edge2_Node000002_Node000003"><a xlink:title=" ">
<path fill="none" stroke="#63b8ff" d="M352.78,-495.3C377.62,-517.4 425.13,-556.64 472.25,-579 475.72,-580.65 479.32,-582.2 482.99,-583.66"/>
<polygon fill="#63b8ff" stroke="#63b8ff" points="481.49,-586.84 492.09,-587 483.91,-580.27 481.49,-586.84"/>
</a>
</g>
</g>
<!-- Node4 -->
<g id="Node000004" class="node">
<title>Node4</title>
<g id="a_Node000004"><a xlink:href="classindovinaparola_1_1common_1_1_payload_sfida.html#a52de5c49c2410d48eff330d1b5184f63" target="_top" xlink:title="Restituisce l&#39;estratto testuale con la parola cifrata.">
<polygon fill="white" stroke="#666666" points="647.25,-570 490.25,-570 490.25,-538 647.25,-538 647.25,-570"/>
<text xml:space="preserve" text-anchor="start" x="498.25" y="-556.5" font-family="Helvetica,sans-Serif" font-size="10.00">indovinaparola.common.Payload</text>
<text xml:space="preserve" text-anchor="middle" x="568.75" y="-544.5" font-family="Helvetica,sans-Serif" font-size="10.00">Sfida.getEstrattoTesto</text>
</a>
</g>
</g>
<!-- Node2&#45;&gt;Node4 -->
<g id="edge3_Node000002_Node000004" class="edge">
<title>Node2&#45;&gt;Node4</title>
<g id="a_edge3_Node000002_Node000004"><a xlink:title=" ">
<path fill="none" stroke="#63b8ff" d="M377.09,-495.46C404.06,-505.75 439.96,-518.91 472.25,-529 478.28,-530.88 484.54,-532.74 490.86,-534.54"/>
<polygon fill="#63b8ff" stroke="#63b8ff" points="489.47,-537.79 500.05,-537.11 491.36,-531.05 489.47,-537.79"/>
</a>
</g>
</g>
<!-- Node5 -->
<g id="Node000005" class="node">
<title>Node5</title>
<g id="a_Node000005"><a xlink:href="classindovinaparola_1_1common_1_1_payload_sfida.html#a1febb61dc32ff276638816f46c64f0bf" target="_top" xlink:title="Restituisce la lista delle parole cifrate nella sfida.">
<polygon fill="white" stroke="#666666" points="647.25,-520 490.25,-520 490.25,-488 647.25,-488 647.25,-520"/>
<text xml:space="preserve" text-anchor="start" x="498.25" y="-506.5" font-family="Helvetica,sans-Serif" font-size="10.00">indovinaparola.common.Payload</text>
<text xml:space="preserve" text-anchor="middle" x="568.75" y="-494.5" font-family="Helvetica,sans-Serif" font-size="10.00">Sfida.getParoleCifrate</text>
</a>
</g>
</g>
<!-- Node2&#45;&gt;Node5 -->
<g id="edge4_Node000002_Node000005" class="edge">
<title>Node2&#45;&gt;Node5</title>
<g id="a_edge4_Node000002_Node000005"><a xlink:title=" ">
<path fill="none" stroke="#63b8ff" d="M409.69,-487.01C431.63,-489.37 455.86,-491.98 478.61,-494.42"/>
<polygon fill="#63b8ff" stroke="#63b8ff" points="478.18,-497.89 488.5,-495.48 478.93,-490.93 478.18,-497.89"/>
</a>
</g>
</g>
<!-- Node6 -->
<g id="Node000006" class="node">
<title>Node6</title>
<g id="a_Node000006"><a xlink:href="classindovinaparola_1_1common_1_1_payload_sfida.html#afe61b33ab689e4254eefb0ed5b114eba" target="_top" xlink:title="Restituisce la durata del timer in secondi.">
<polygon fill="white" stroke="#666666" points="647.25,-470 490.25,-470 490.25,-438 647.25,-438 647.25,-470"/>
<text xml:space="preserve" text-anchor="start" x="498.25" y="-456.5" font-family="Helvetica,sans-Serif" font-size="10.00">indovinaparola.common.Payload</text>
<text xml:space="preserve" text-anchor="middle" x="568.75" y="-444.5" font-family="Helvetica,sans-Serif" font-size="10.00">Sfida.getSecondiTimeout</text>
</a>
</g>
</g>
<!-- Node2&#45;&gt;Node6 -->
<g id="edge5_Node000002_Node000006" class="edge">
<title>Node2&#45;&gt;Node6</title>
<g id="a_edge5_Node000002_Node000006"><a xlink:title=" ">
<path fill="none" stroke="#63b8ff" d="M409.69,-470.99C431.63,-468.63 455.86,-466.02 478.61,-463.58"/>
<polygon fill="#63b8ff" stroke="#63b8ff" points="478.93,-467.07 488.5,-462.52 478.18,-460.11 478.93,-467.07"/>
</a>
</g>
</g>
<!-- Node7 -->
<g id="Node000007" class="node">
<title>Node7</title>
<g id="a_Node000007"><a xlink:href="classindovinaparola_1_1client_1_1controller_1_1_controller_gioco.html#a48e4e9e8e6ac758d18537dfd04b65dbe" target="_top" xlink:title="Mostra il pannello di gioco e nasconde gli altri.">
<polygon fill="white" stroke="#666666" points="643.88,-420 493.62,-420 493.62,-388 643.88,-388 643.88,-420"/>
<text xml:space="preserve" text-anchor="start" x="501.62" y="-406.5" font-family="Helvetica,sans-Serif" font-size="10.00">indovinaparola.client.controller.</text>
<text xml:space="preserve" text-anchor="middle" x="568.75" y="-394.5" font-family="Helvetica,sans-Serif" font-size="10.00">ControllerGioco.mostraGioco</text>
</a>
</g>
</g>
<!-- Node2&#45;&gt;Node7 -->
<g id="edge6_Node000002_Node000007" class="edge">
<title>Node2&#45;&gt;Node7</title>
<g id="a_edge6_Node000002_Node000007"><a xlink:title=" ">
<path fill="none" stroke="#63b8ff" d="M377.09,-462.54C404.06,-452.25 439.96,-439.09 472.25,-429 478.28,-427.12 484.54,-425.26 490.86,-423.46"/>
<polygon fill="#63b8ff" stroke="#63b8ff" points="491.36,-426.95 500.05,-420.89 489.47,-420.21 491.36,-426.95"/>
</a>
</g>
</g>
<!-- Node8 -->
<g id="Node000008" class="node">
<title>Node8</title>
<g id="a_Node000008"><a xlink:href="classindovinaparola_1_1client_1_1controller_1_1_controller_gioco.html#aef0c643e7d1756b519308f9e7f7760a4" target="_top" xlink:title="Imposta visibilità e managed di un pannello VBox.">
<polygon fill="white" stroke="#666666" points="853,-326 701.25,-326 701.25,-294 853,-294 853,-326"/>
<text xml:space="preserve" text-anchor="start" x="709.25" y="-312.5" font-family="Helvetica,sans-Serif" font-size="10.00">indovinaparola.client.controller.</text>
<text xml:space="preserve" text-anchor="middle" x="777.12" y="-300.5" font-family="Helvetica,sans-Serif" font-size="10.00">ControllerGioco.setPaneVisible</text>
</a>
</g>
</g>
<!-- Node7&#45;&gt;Node8 -->
<g id="edge7_Node000007_Node000008" class="edge">
<title>Node7&#45;&gt;Node8</title>
<g id="a_edge7_Node000007_Node000008"><a xlink:title=" ">
<path fill="none" stroke="#63b8ff" d="M642.23,-387.5C650.12,-384.98 657.93,-382.15 665.25,-379 693.78,-366.72 723.54,-347.82 745.03,-332.9"/>
<polygon fill="#63b8ff" stroke="#63b8ff" points="746.9,-335.87 753.05,-327.24 742.86,-330.15 746.9,-335.87"/>
</a>
</g>
</g>
<!-- Node10 -->
<g id="Node000010" class="node">
<title>Node10</title>
<g id="a_Node000010"><a xlink:href="classindovinaparola_1_1client_1_1controller_1_1_controller_gioco.html#aca84c0f0e06335a4e0d25f674250949c" target="_top" xlink:title="Mostra un messaggio di feedback nella label dedicata.">
<polygon fill="white" stroke="#666666" points="648.38,-370 489.12,-370 489.12,-338 648.38,-338 648.38,-370"/>
<text xml:space="preserve" text-anchor="start" x="497.12" y="-356.5" font-family="Helvetica,sans-Serif" font-size="10.00">indovinaparola.client.controller.</text>
<text xml:space="preserve" text-anchor="middle" x="568.75" y="-344.5" font-family="Helvetica,sans-Serif" font-size="10.00">ControllerGioco.mostraFeedback</text>
</a>
</g>
</g>
<!-- Node9&#45;&gt;Node10 -->
<g id="edge9_Node000009_Node000010" class="edge">
<title>Node9&#45;&gt;Node10</title>
<g id="a_edge9_Node000009_Node000010"><a xlink:title=" ">
<path fill="none" stroke="#63b8ff" d="M422.08,-369.66C440.24,-367.7 459.44,-365.64 477.71,-363.68"/>
<polygon fill="#63b8ff" stroke="#63b8ff" points="477.88,-367.18 487.45,-362.63 477.14,-360.22 477.88,-367.18"/>
</a>
</g>
</g>
<!-- Node13&#45;&gt;Node8 -->
<g id="edge13_Node000013_Node000008" class="edge">
<title>Node13&#45;&gt;Node8</title>
<g id="a_edge13_Node000013_Node000008"><a xlink:title=" ">
<path fill="none" stroke="#63b8ff" d="M409.64,-256.11C418.78,-258.92 427.85,-262.2 436.25,-266 454,-274.03 453.85,-284.6 472.25,-291 542.52,-315.44 627.37,-318.75 689.53,-316.78"/>
<polygon fill="#63b8ff" stroke="#63b8ff" points="689.49,-320.28 699.35,-316.41 689.22,-313.28 689.49,-320.28"/>
</a>
</g>
</g>
<!-- Node15 -->
<g id="Node000015" class="node">
<title>Node15</title>
<g id="a_Node000015"><a xlink:href="classindovinaparola_1_1common_1_1_risultato_sfida.html#aa414e4d98b943d62a9cd8a6c1534ba97" target="_top" xlink:title="Restituisce l&#39;esito della sfida dal punto di vista del ricevente.">
<polygon fill="white" stroke="#666666" points="649.12,-282 488.38,-282 488.38,-250 649.12,-250 649.12,-282"/>
<text xml:space="preserve" text-anchor="start" x="496.38" y="-268.5" font-family="Helvetica,sans-Serif" font-size="10.00">indovinaparola.common.Risultato</text>
<text xml:space="preserve" text-anchor="middle" x="568.75" y="-256.5" font-family="Helvetica,sans-Serif" font-size="10.00">Sfida.getEsito</text>
</a>
</g>
</g>
<!-- Node14&#45;&gt;Node15 -->
<g id="edge15_Node000014_Node000015" class="edge">
<title>Node14&#45;&gt;Node15</title>
<g id="a_edge15_Node000014_Node000015"><a xlink:title=" ">
<path fill="none" stroke="#63b8ff" d="M371.37,-182.33C390.95,-191.54 415.33,-203.66 436.25,-216 453.03,-225.9 454.56,-232.85 472.25,-241 475.82,-242.64 479.52,-244.2 483.3,-245.66"/>
<polygon fill="#63b8ff" stroke="#63b8ff" points="482.07,-248.93 492.66,-249.02 484.44,-242.35 482.07,-248.93"/>
</a>
</g>
</g>
<!-- Node16 -->
<g id="Node000016" class="node">
<title>Node16</title>
<g id="a_Node000016"><a xlink:href="classindovinaparola_1_1common_1_1_risultato_sfida.html#ad94a700e26a9d9c9c5823d70f81dd35e" target="_top" xlink:title="Restituisce il nome utente del vincitore.">
<polygon fill="white" stroke="#666666" points="649.12,-232 488.38,-232 488.38,-200 649.12,-200 649.12,-232"/>
<text xml:space="preserve" text-anchor="start" x="496.38" y="-218.5" font-family="Helvetica,sans-Serif" font-size="10.00">indovinaparola.common.Risultato</text>
<text xml:space="preserve" text-anchor="middle" x="568.75" y="-206.5" font-family="Helvetica,sans-Serif" font-size="10.00">Sfida.getNomeUtenteVincitore</text>
</a>
</g>
</g>
<!-- Node14&#45;&gt;Node16 -->
<g id="edge16_Node000014_Node000016" class="edge">
<title>Node14&#45;&gt;Node16</title>
<g id="a_edge16_Node000014_Node000016"><a xlink:title=" ">
<path fill="none" stroke="#63b8ff" d="M411.62,-182.44C433.48,-187.14 457.48,-192.3 479.96,-197.13"/>
<polygon fill="#63b8ff" stroke="#63b8ff" points="479.22,-200.55 489.73,-199.23 480.69,-193.71 479.22,-200.55"/>
</a>
</g>
</g>
<!-- Node17 -->
<g id="Node000017" class="node">
<title>Node17</title>
<g id="a_Node000017"><a xlink:href="classindovinaparola_1_1common_1_1_risultato_sfida.html#a10fb53bc5ceae1e5c2ab66c6c370eb1e" target="_top" xlink:title="Restituisce la parola originale corretta.">
<polygon fill="white" stroke="#666666" points="649.12,-182 488.38,-182 488.38,-150 649.12,-150 649.12,-182"/>
<text xml:space="preserve" text-anchor="start" x="496.38" y="-168.5" font-family="Helvetica,sans-Serif" font-size="10.00">indovinaparola.common.Risultato</text>
<text xml:space="preserve" text-anchor="middle" x="568.75" y="-156.5" font-family="Helvetica,sans-Serif" font-size="10.00">Sfida.getParolaCorretta</text>
</a>
</g>
</g>
<!-- Node14&#45;&gt;Node17 -->
<g id="edge17_Node000014_Node000017" class="edge">
<title>Node14&#45;&gt;Node17</title>
<g id="a_edge17_Node000014_Node000017"><a xlink:title=" ">
<path fill="none" stroke="#63b8ff" d="M412.26,-166C432.89,-166 455.38,-166 476.68,-166"/>
<polygon fill="#63b8ff" stroke="#63b8ff" points="476.52,-169.5 486.52,-166 476.52,-162.5 476.52,-169.5"/>
</a>
</g>
</g>
<!-- Node18 -->
<g id="Node000018" class="node">
<title>Node18</title>
<g id="a_Node000018"><a xlink:href="classindovinaparola_1_1client_1_1controller_1_1_controller_gioco.html#a56d6a79281726c5bab6553369780ae89" target="_top" xlink:title="Mostra il pannello del risultato e nasconde gli altri.">
<polygon fill="white" stroke="#666666" points="665.25,-132 472.25,-132 472.25,-100 665.25,-100 665.25,-132"/>
<text xml:space="preserve" text-anchor="start" x="480.25" y="-118.5" font-family="Helvetica,sans-Serif" font-size="10.00">indovinaparola.client.controller.</text>
<text xml:space="preserve" text-anchor="middle" x="568.75" y="-106.5" font-family="Helvetica,sans-Serif" font-size="10.00">ControllerGioco.mostraPannelloRisultato</text>
</a>
</g>
</g>
<!-- Node14&#45;&gt;Node18 -->
<g id="edge18_Node000014_Node000018" class="edge">
<title>Node14&#45;&gt;Node18</title>
<g id="a_edge18_Node000014_Node000018"><a xlink:title=" ">
<path fill="none" stroke="#63b8ff" d="M411.62,-149.56C433.48,-144.86 457.48,-139.7 479.96,-134.87"/>
<polygon fill="#63b8ff" stroke="#63b8ff" points="480.69,-138.29 489.73,-132.77 479.22,-131.45 480.69,-138.29"/>
</a>
</g>
</g>
<!-- Node19 -->
<g id="Node000019" class="node">
<title>Node19</title>
<g id="a_Node000019"><a xlink:href="enumindovinaparola_1_1common_1_1_risultato_sfida_1_1_esito.html#a28506b14f136646cc9841534cb0db441" target="_top" xlink:title="Nessuno ha risposto correttamente entro il timeout.">
<polygon fill="white" stroke="#666666" points="649.12,-82 488.38,-82 488.38,-50 649.12,-50 649.12,-82"/>
<text xml:space="preserve" text-anchor="start" x="496.38" y="-68.5" font-family="Helvetica,sans-Serif" font-size="10.00">indovinaparola.common.Risultato</text>
<text xml:space="preserve" text-anchor="middle" x="568.75" y="-56.5" font-family="Helvetica,sans-Serif" font-size="10.00">Sfida.Esito.toDisplayString</text>
</a>
</g>
</g>
<!-- Node14&#45;&gt;Node19 -->
<g id="edge20_Node000014_Node000019" class="edge">
<title>Node14&#45;&gt;Node19</title>
<g id="a_edge20_Node000014_Node000019"><a xlink:title=" ">
<path fill="none" stroke="#63b8ff" d="M360.49,-149.66C387.34,-132.96 431.4,-107.23 472.25,-91 476.81,-89.19 481.54,-87.47 486.35,-85.85"/>
<polygon fill="#63b8ff" stroke="#63b8ff" points="487.07,-89.29 495.53,-82.9 484.94,-82.62 487.07,-89.29"/>
</a>
</g>
</g>
<!-- Node20 -->
<g id="Node000020" class="node">
<title>Node20</title>
<g id="a_Node000020"><a xlink:href="enumindovinaparola_1_1common_1_1_risultato_sfida_1_1_esito.html#a7e6772969062be823b4c6b56e5b09467" target="_top" xlink:title="Restituisce l&#39;emoji associata all&#39;esito.">
<polygon fill="white" stroke="#666666" points="649.12,-32 488.38,-32 488.38,0 649.12,0 649.12,-32"/>
<text xml:space="preserve" text-anchor="start" x="496.38" y="-18.5" font-family="Helvetica,sans-Serif" font-size="10.00">indovinaparola.common.Risultato</text>
<text xml:space="preserve" text-anchor="middle" x="568.75" y="-6.5" font-family="Helvetica,sans-Serif" font-size="10.00">Sfida.Esito.toEmoji</text>
</a>
</g>
</g>
<!-- Node14&#45;&gt;Node20 -->
<g id="edge21_Node000014_Node000020" class="edge">
<title>Node14&#45;&gt;Node20</title>
<g id="a_edge21_Node000014_Node000020"><a xlink:title=" ">
<path fill="none" stroke="#63b8ff" d="M348.1,-149.92C370.55,-123.2 419.32,-69.75 472.25,-41 475.07,-39.47 478,-38.02 480.99,-36.67"/>
<polygon fill="#63b8ff" stroke="#63b8ff" points="482.08,-40 489.98,-32.95 479.4,-33.53 482.08,-40"/>
</a>
</g>
</g>
<!-- Node18&#45;&gt;Node8 -->
<g id="edge19_Node000018_Node000008" class="edge">
<title>Node18&#45;&gt;Node8</title>
<g id="a_edge19_Node000018_Node000008"><a xlink:title=" ">
<path fill="none" stroke="#63b8ff" d="M650.44,-132.35C655.66,-134.83 660.66,-137.7 665.25,-141 716.13,-177.56 749.96,-245.32 765.79,-282.98"/>
<polygon fill="#63b8ff" stroke="#63b8ff" points="762.54,-284.29 769.55,-292.23 769.02,-281.65 762.54,-284.29"/>
</a>
</g>
</g>
</g>
</svg>

<g id="navigator" transform="translate(0 0)" fill="#404254">
  <rect fill="#f2f5e9" fill-opacity="0.5" stroke="#606060" stroke-width=".5" x="0" y="0" width="60" height="60"/>
  <use id="zoomplus" xlink:href="#zoomPlus" x="17" y="9" onmousedown="handleZoom(evt,'in')"/>
  <use id="zoomminus" xlink:href="#zoomMin" x="42" y="9" onmousedown="handleZoom(evt,'out')"/>
  <use id="reset" xlink:href="#resetDef" x="30" y="36" onmousedown="handleReset()"/>
   <use id="arrowup" xlink:href="#arrowUp" x="0" y="0" onmousedown="handlePan(0,-1)"/>
  <use id="arrowright" xlink:href="#arrowRight" x="0" y="0" onmousedown="handlePan(1,0)"/>
  <use id="arrowdown" xlink:href="#arrowDown" x="0" y="0" onmousedown="handlePan(0,1)"/>
  <use id="arrowleft" xlink:href="#arrowLeft" x="0" y="0" onmousedown="handlePan(-1,0)"/>
</g>
<svg viewBox="0 0 15 15" width="100%" height="30px" preserveAspectRatio="xMaxYMin meet">
 <g id="arrow_out" transform="scale(0.3 0.3)">
  <a xlink:href="classindovinaparola_1_1client_1_1controller_1_1_controller_gioco_a60b4bb8e7fa66a683451851d15fd53c4_cgraph_org.svg" target="_base">
   <rect id="button" ry="5" rx="5" y="6" x="6" height="38" width="38"
        fill="#f2f5e9" fill-opacity="0.5" stroke="#606060" stroke-width="1.0"/>
   <path id="arrow"
     d="M 11.500037,31.436501 C 11.940474,20.09759 22.043105,11.32322 32.158766,21.979434 L 37.068811,17.246167 C 37.068811,17.246167 37.088388,32 37.088388,32 L 22.160133,31.978069 C 22.160133,31.978069 26.997745,27.140456 26.997745,27.140456 C 18.528582,18.264221 13.291696,25.230495 11.500037,31.436501 z"
     style="fill:#404040;"/>
  </a>
 </g>
</svg>

<style type='text/css'>
<![CDATA[
[data-mouse-over-selected='false'] { opacity: 0.7; }
[data-mouse-over-selected='true']  { opacity: 1.0; }
]]>
</style>
<script type="application/ecmascript"><![CDATA[
document.addEventListener('DOMContentLoaded', (event) => {
  highlightEdges();
  highlightAdjacentNodes();
});
]]></script>
</svg>
