<?xml version="1.0" encoding="UTF-8" standalone="no"?>
<!DOCTYPE svg PUBLIC "-//W3C//DTD SVG 1.1//EN"
 "http://www.w3.org/Graphics/SVG/1.1/DTD/svg11.dtd">
<!-- Generated by graphviz version 15.0.0 (20260523.1842)
 -->
<!-- Title: indovinaparola.common.CifrarioCesare Pages: 1 -->
<svg width="153pt" height="104pt"
 viewBox="0.00 0.00 153.00 104.00" xmlns="http://www.w3.org/2000/svg" xmlns:xlink="http://www.w3.org/1999/xlink">
<g id="graph0" class="graph" transform="scale(1 1) rotate(0) translate(4 100)">
<title>indovinaparola.common.CifrarioCesare</title>
<!-- Node1 -->
<g id="Node000001" class="node">
<title>Node1</title>
<g id="a_Node000001"><a xlink:title=" ">
<polygon fill="#999999" stroke="none" points="145.25,-96 0,-96 0,0 145.25,0 145.25,-96"/>
<text xml:space="preserve" text-anchor="start" x="4" y="-82.25" font-family="Helvetica,sans-Serif" font-size="10.00">indovinaparola.common.Cifrario</text>
<text xml:space="preserve" text-anchor="start" x="56.88" y="-70.25" font-family="Helvetica,sans-Serif" font-size="10.00">Cesare</text>
<text xml:space="preserve" text-anchor="start" x="71.12" y="-54.25" font-family="Helvetica,sans-Serif" font-size="10.00"> </text>
<text xml:space="preserve" text-anchor="start" x="18.56" y="-38.25" font-family="Helvetica,sans-Serif" font-size="10.00">+</text>
<text xml:space="preserve" text-anchor="start" x="43.12" y="-38.25" font-family="Helvetica,sans-Serif" font-size="10.00">cifra()</text>
<text xml:space="preserve" text-anchor="start" x="18.56" y="-22.25" font-family="Helvetica,sans-Serif" font-size="10.00">+</text>
<text xml:space="preserve" text-anchor="start" x="43.12" y="-22.25" font-family="Helvetica,sans-Serif" font-size="10.00">decifra()</text>
<text xml:space="preserve" text-anchor="start" x="20.06" y="-6.25" font-family="Helvetica,sans-Serif" font-size="10.00">&#45;</text>
<text xml:space="preserve" text-anchor="start" x="43.12" y="-6.25" font-family="Helvetica,sans-Serif" font-size="10.00">CifrarioCesare()</text>
<polygon fill="#666666" stroke="#666666" points="0,-66 0,-66 145.25,-66 145.25,-66 0,-66"/>
<polygon fill="#666666" stroke="#666666" points="0,-50 0,-50 145.25,-50 145.25,-50 0,-50"/>
<polygon fill="none" stroke="#666666" points="0,0 0,-96 145.25,-96 145.25,0 0,0"/>
</a>
</g>
</g>
</g>
</svg>
