<?xml version="1.0" encoding="UTF-8" standalone="no"?>
<!DOCTYPE svg PUBLIC "-//W3C//DTD SVG 1.1//EN"
 "http://www.w3.org/Graphics/SVG/1.1/DTD/svg11.dtd">
<!-- Generated by graphviz version 15.0.0 (20260523.1842)
 -->
<!-- Title: indovinaparola.server.model.CoordinatoreGioco.avviaSfida Pages: 1 -->
<!--zoomable 247 -->

<svg id="main" version="1.1" xmlns="http://www.w3.org/2000/svg" xmlns:xlink="http://www.w3.org/1999/xlink" xml:space="preserve" onload="init(evt)">

<style type="text/css"><![CDATA[
.node, .edge {opacity: 0.7;}
.node.selected, .edge.selected {opacity: 1;}
.edge:hover path { stroke: red; }
.edge:hover polygon { stroke: red; fill: red; }
]]></style>

<defs>
  <circle id="rim" cx="0" cy="0" r="7"/>
  <circle id="rim2" cx="0" cy="0" r="3.5"/>
  <g id="zoomPlus">
    <use xlink:href="#rim" fill="#404040"><set attributeName="fill" to="#808080" begin="zoomplus.mouseover" end="zoomplus.mouseout"/></use>
    <path d="M-4,0h8M0,-4v8" fill="none" stroke="white" stroke-width="1.5" pointer-events="none"/>
  </g>
  <g id="zoomMin">
    <use xlink:href="#rim" fill="#404040"><set attributeName="fill" to="#808080" begin="zoomminus.mouseover" end="zoomminus.mouseout"/></use>
    <path d="M-4,0h8" fill="none" stroke="white" stroke-width="1.5" pointer-events="none"/>
  </g>
  <g id="arrowUp" transform="translate(30 24)">
    <use xlink:href="#rim"/>
    <path pointer-events="none" fill="none" stroke="white" stroke-width="1.5" d="M0,-3.0v7 M-2.5,-0.5L0,-3.0L2.5,-0.5"/>
  </g>
  <g id="arrowRight" transform="rotate(90) translate(36 -43)">
    <use xlink:href="#rim"/>
    <path pointer-events="none" fill="none" stroke="white" stroke-width="1.5" d="M0,-3.0v7 M-2.5,-0.5L0,-3.0L2.5,-0.5"/>
  </g>
  <g id="arrowDown" transform="rotate(180) translate(-30 -48)">
    <use xlink:href="#rim"/>
    <path pointer-events="none" fill="none" stroke="white" stroke-width="1.5" d="M0,-3.0v7 M-2.5,-0.5L0,-3.0L2.5,-0.5"/>
  </g>
  <g id="arrowLeft" transform="rotate(270) translate(-36 17)">
    <use xlink:href="#rim"/>
    <path pointer-events="none" fill="none" stroke="white" stroke-width="1.5" d="M0,-3.0v7 M-2.5,-0.5L0,-3.0L2.5,-0.5"/>
  </g>
  <g id="resetDef">
    <use xlink:href="#rim2" fill="#404040"><set attributeName="fill" to="#808080" begin="reset.mouseover" end="reset.mouseout"/></use>
  </g>
</defs>
<script type="application/ecmascript">
var viewWidth = 555;
var viewHeight = 247;
var sectionId = 'dynsection-4';
</script>
<script type="application/ecmascript" xlink:href="svg.min.js"/>
<svg id="graph" class="graph">
<g id="viewport">
<title>indovinaparola.server.model.CoordinatoreGioco.avviaSfida</title>
<!-- Node1 -->
<g id="Node000001" class="node">
<title>Node1</title>
<g id="a_Node000001"><a xlink:title="Avvia una nuova sfida tra due giocatori.">
<polygon fill="#999999" stroke="#666666" points="145.75,-123 0,-123 0,-91 145.75,-91 145.75,-123"/>
<text xml:space="preserve" text-anchor="start" x="8" y="-109.5" font-family="Helvetica,sans-Serif" font-size="10.00">indovinaparola.server.model.</text>
<text xml:space="preserve" text-anchor="middle" x="72.88" y="-97.5" font-family="Helvetica,sans-Serif" font-size="10.00">CoordinatoreGioco.avviaSfida</text>
</a>
</g>
</g>
<!-- Node2 -->
<g id="Node000002" class="node">
<title>Node2</title>
<g id="a_Node000002"><a xlink:href="classindovinaparola_1_1common_1_1_cifrario_cesare.html#a31b7e413aafaf47558f13cd05832d14b" target="_top" xlink:title="Cifra una parola con il Cifrario di Cesare.">
<polygon fill="white" stroke="#666666" points="348.88,-239 195.62,-239 195.62,-207 348.88,-207 348.88,-239"/>
<text xml:space="preserve" text-anchor="start" x="203.62" y="-225.5" font-family="Helvetica,sans-Serif" font-size="10.00">indovinaparola.common.Cifrario</text>
<text xml:space="preserve" text-anchor="middle" x="272.25" y="-213.5" font-family="Helvetica,sans-Serif" font-size="10.00">Cesare.cifra</text>
</a>
</g>
</g>
<!-- Node1&#45;&gt;Node2 -->
<g id="edge1_Node000001_Node000002" class="edge">
<title>Node1&#45;&gt;Node2</title>
<g id="a_edge1_Node000001_Node000002"><a xlink:title=" ">
<path fill="none" stroke="#63b8ff" d="M88.72,-123.24C108.19,-143.59 144.28,-178.18 181.75,-198 184.62,-199.52 187.6,-200.96 190.65,-202.31"/>
<polygon fill="#63b8ff" stroke="#63b8ff" points="189.23,-205.51 199.81,-206.04 191.87,-199.03 189.23,-205.51"/>
</a>
</g>
</g>
<!-- Node3 -->
<g id="Node000003" class="node">
<title>Node3</title>
<g id="a_Node000003"><a xlink:href="classindovinaparola_1_1server_1_1model_1_1_coordinatore_gioco.html#a3d0509da0a1b488c988036de5f7bae4b" target="_top" xlink:title="Costruisce il coordinatore del gioco.">
<polygon fill="white" stroke="#666666" points="362.75,-189 181.75,-189 181.75,-157 362.75,-157 362.75,-189"/>
<text xml:space="preserve" text-anchor="start" x="189.75" y="-175.5" font-family="Helvetica,sans-Serif" font-size="10.00">indovinaparola.server.model.</text>
<text xml:space="preserve" text-anchor="middle" x="272.25" y="-163.5" font-family="Helvetica,sans-Serif" font-size="10.00">CoordinatoreGioco.CoordinatoreGioco</text>
</a>
</g>
</g>
<!-- Node1&#45;&gt;Node3 -->
<g id="edge2_Node000001_Node000003" class="edge">
<title>Node1&#45;&gt;Node3</title>
<g id="a_edge2_Node000001_Node000003"><a xlink:title=" ">
<path fill="none" stroke="#63b8ff" d="M123.17,-123.48C150,-132.46 183.4,-143.62 211.68,-153.08"/>
<polygon fill="#63b8ff" stroke="#63b8ff" points="210.21,-156.28 220.8,-156.13 212.43,-149.64 210.21,-156.28"/>
</a>
</g>
</g>
<!-- Node4 -->
<g id="Node000004" class="node">
<title>Node4</title>
<g id="a_Node000004"><a xlink:href="classindovinaparola_1_1server_1_1model_1_1_gestore_client.html#a0132f0000b2143692d87516abd31e231" target="_top" xlink:title="Restituisce lo nomeUtente del client autenticato.">
<polygon fill="white" stroke="#666666" points="546.75,-141 398.75,-141 398.75,-109 546.75,-109 546.75,-141"/>
<text xml:space="preserve" text-anchor="start" x="406.75" y="-127.5" font-family="Helvetica,sans-Serif" font-size="10.00">indovinaparola.server.model.</text>
<text xml:space="preserve" text-anchor="middle" x="472.75" y="-115.5" font-family="Helvetica,sans-Serif" font-size="10.00">GestoreClient.getNomeUtente</text>
</a>
</g>
</g>
<!-- Node1&#45;&gt;Node4 -->
<g id="edge3_Node000001_Node000004" class="edge">
<title>Node1&#45;&gt;Node4</title>
<g id="a_edge3_Node000001_Node000004"><a xlink:title=" ">
<path fill="none" stroke="#63b8ff" d="M145.93,-110.26C213.84,-113.33 315.62,-117.94 387.31,-121.18"/>
<polygon fill="#63b8ff" stroke="#63b8ff" points="386.89,-124.66 397.04,-121.62 387.21,-117.67 386.89,-124.66"/>
</a>
</g>
</g>
<!-- Node5 -->
<g id="Node000005" class="node">
<title>Node5</title>
<g id="a_Node000005"><a xlink:href="classindovinaparola_1_1server_1_1model_1_1_gestore_client.html#af3f6165ff95ef2006e69eb6fb7adb6bf" target="_top" xlink:title="Invia un messaggio al client in modo thread&#45;safe.">
<polygon fill="white" stroke="#666666" points="543,-88 402.5,-88 402.5,-56 543,-56 543,-88"/>
<text xml:space="preserve" text-anchor="start" x="410.5" y="-74.5" font-family="Helvetica,sans-Serif" font-size="10.00">indovinaparola.server.model.</text>
<text xml:space="preserve" text-anchor="middle" x="472.75" y="-62.5" font-family="Helvetica,sans-Serif" font-size="10.00">GestoreClient.invia</text>
</a>
</g>
</g>
<!-- Node1&#45;&gt;Node5 -->
<g id="edge4_Node000001_Node000005" class="edge">
<title>Node1&#45;&gt;Node5</title>
<g id="a_edge4_Node000001_Node000005"><a xlink:title=" ">
<path fill="none" stroke="#63b8ff" d="M102.55,-90.63C123.69,-79.54 153.55,-65.88 181.75,-60 251.38,-45.49 332.39,-50.63 391.06,-58.16"/>
<polygon fill="#63b8ff" stroke="#63b8ff" points="390.24,-61.58 400.62,-59.44 391.17,-54.64 390.24,-61.58"/>
</a>
</g>
</g>
<!-- Node6 -->
<g id="Node000006" class="node">
<title>Node6</title>
<g id="a_Node000006"><a xlink:href="classindovinaparola_1_1server_1_1model_1_1_coordinatore_gioco.html#a259735d196946931b37383bfd46e7c92" target="_top" xlink:title="Scrive un messaggio nel log del sistema, chiamando anche la callback della GUI se impostata.">
<polygon fill="white" stroke="#666666" points="543,-32 402.5,-32 402.5,0 543,0 543,-32"/>
<text xml:space="preserve" text-anchor="start" x="410.5" y="-18.5" font-family="Helvetica,sans-Serif" font-size="10.00">indovinaparola.server.model.</text>
<text xml:space="preserve" text-anchor="middle" x="472.75" y="-6.5" font-family="Helvetica,sans-Serif" font-size="10.00">CoordinatoreGioco.log</text>
</a>
</g>
</g>
<!-- Node1&#45;&gt;Node6 -->
<g id="edge5_Node000001_Node000006" class="edge">
<title>Node1&#45;&gt;Node6</title>
<g id="a_edge5_Node000001_Node000006"><a xlink:title=" ">
<path fill="none" stroke="#63b8ff" d="M96.62,-90.77C117.64,-76.66 150.29,-56.97 181.75,-47 250.22,-25.29 331.85,-18.12 391.04,-16.05"/>
<polygon fill="#63b8ff" stroke="#63b8ff" points="390.79,-19.55 400.68,-15.75 390.58,-12.56 390.79,-19.55"/>
</a>
</g>
</g>
<!-- Node7 -->
<g id="Node000007" class="node">
<title>Node7</title>
<g id="a_Node000007"><a xlink:href="classindovinaparola_1_1server_1_1model_1_1_coordinatore_gioco.html#a269d7268fb2c81755f3d076c83a73d0d" target="_top" xlink:title="Termina la sfida in corso, invia i risultati ai client e persiste i dati nel database in una transazi...">
<polygon fill="white" stroke="#666666" points="349.62,-101 194.88,-101 194.88,-69 349.62,-69 349.62,-101"/>
<text xml:space="preserve" text-anchor="start" x="202.88" y="-87.5" font-family="Helvetica,sans-Serif" font-size="10.00">indovinaparola.server.model.</text>
<text xml:space="preserve" text-anchor="middle" x="272.25" y="-75.5" font-family="Helvetica,sans-Serif" font-size="10.00">CoordinatoreGioco.terminaSfida</text>
</a>
</g>
</g>
<!-- Node1&#45;&gt;Node7 -->
<g id="edge6_Node000001_Node000007" class="edge">
<title>Node1&#45;&gt;Node7</title>
<g id="a_edge6_Node000001_Node000007"><a xlink:title=" ">
<path fill="none" stroke="#63b8ff" d="M146.25,-98.93C158.29,-97.59 170.9,-96.18 183.29,-94.8"/>
<polygon fill="#63b8ff" stroke="#63b8ff" points="183.52,-98.3 193.07,-93.71 182.74,-91.34 183.52,-98.3"/>
</a>
</g>
</g>
<!-- Node7&#45;&gt;Node4 -->
<g id="edge7_Node000007_Node000004" class="edge">
<title>Node7&#45;&gt;Node4</title>
<g id="a_edge7_Node000007_Node000004"><a xlink:title=" ">
<path fill="none" stroke="#63b8ff" d="M350,-100.47C362.19,-102.92 374.86,-105.48 387.23,-107.97"/>
<polygon fill="#63b8ff" stroke="#63b8ff" points="386.49,-111.39 396.98,-109.93 387.87,-104.53 386.49,-111.39"/>
</a>
</g>
</g>
<!-- Node7&#45;&gt;Node5 -->
<g id="edge8_Node000007_Node000005" class="edge">
<title>Node7&#45;&gt;Node5</title>
<g id="a_edge8_Node000007_Node000005"><a xlink:title=" ">
<path fill="none" stroke="#63b8ff" d="M350,-79.97C363.38,-79.1 377.33,-78.18 390.82,-77.3"/>
<polygon fill="#63b8ff" stroke="#63b8ff" points="390.76,-80.81 400.51,-76.67 390.3,-73.83 390.76,-80.81"/>
</a>
</g>
</g>
<!-- Node7&#45;&gt;Node6 -->
<g id="edge9_Node000007_Node000006" class="edge">
<title>Node7&#45;&gt;Node6</title>
<g id="a_edge9_Node000007_Node000006"><a xlink:title=" ">
<path fill="none" stroke="#63b8ff" d="M320.54,-68.56C348.53,-58.83 384.19,-46.44 413.84,-36.13"/>
<polygon fill="#63b8ff" stroke="#63b8ff" points="414.75,-39.52 423.05,-32.93 412.45,-32.91 414.75,-39.52"/>
</a>
</g>
</g>
</g>
</svg>

<g id="navigator" transform="translate(0 0)" fill="#404254">
  <rect fill="#f2f5e9" fill-opacity="0.5" stroke="#606060" stroke-width=".5" x="0" y="0" width="60" height="60"/>
  <use id="zoomplus" xlink:href="#zoomPlus" x="17" y="9" onmousedown="handleZoom(evt,'in')"/>
  <use id="zoomminus" xlink:href="#zoomMin" x="42" y="9" onmousedown="handleZoom(evt,'out')"/>
  <use id="reset" xlink:href="#resetDef" x="30" y="36" onmousedown="handleReset()"/>
   <use id="arrowup" xlink:href="#arrowUp" x="0" y="0" onmousedown="handlePan(0,-1)"/>
  <use id="arrowright" xlink:href="#arrowRight" x="0" y="0" onmousedown="handlePan(1,0)"/>
  <use id="arrowdown" xlink:href="#arrowDown" x="0" y="0" onmousedown="handlePan(0,1)"/>
  <use id="arrowleft" xlink:href="#arrowLeft" x="0" y="0" onmousedown="handlePan(-1,0)"/>
</g>
<svg viewBox="0 0 15 15" width="100%" height="30px" preserveAspectRatio="xMaxYMin meet">
 <g id="arrow_out" transform="scale(0.3 0.3)">
  <a xlink:href="classindovinaparola_1_1server_1_1model_1_1_coordinatore_gioco_a8bd8b81c9b3f5331c36fea260be105cf_cgraph_org.svg" target="_base">
   <rect id="button" ry="5" rx="5" y="6" x="6" height="38" width="38"
        fill="#f2f5e9" fill-opacity="0.5" stroke="#606060" stroke-width="1.0"/>
   <path id="arrow"
     d="M 11.500037,31.436501 C 11.940474,20.09759 22.043105,11.32322 32.158766,21.979434 L 37.068811,17.246167 C 37.068811,17.246167 37.088388,32 37.088388,32 L 22.160133,31.978069 C 22.160133,31.978069 26.997745,27.140456 26.997745,27.140456 C 18.528582,18.264221 13.291696,25.230495 11.500037,31.436501 z"
     style="fill:#404040;"/>
  </a>
 </g>
</svg>

<style type='text/css'>
<![CDATA[
[data-mouse-over-selected='false'] { opacity: 0.7; }
[data-mouse-over-selected='true']  { opacity: 1.0; }
]]>
</style>
<script type="application/ecmascript"><![CDATA[
document.addEventListener('DOMContentLoaded', (event) => {
  highlightEdges();
  highlightAdjacentNodes();
});
]]></script>
</svg>
